<svg xmlns="http://www.w3.org/2000/svg" viewBox="0 0 384.4 96.0" width="1538" height="384">
  <title>wisdom-first</title>
  <!-- for dark backgrounds · wordmark outlined from Source Serif 4 (OFL) -->
  <g transform="translate(0 3.0) scale(1.5)">
    <path fill="#E3B054" d="M3 20 L27 42 L27 47 L3 26.5 Z"/>
    <path fill="#EFE8D8" d="M3 26.5 L27 47 L27 52 L3 34 Z"/>
    <path fill="#E3B054" d="M61 20 L37 42 L37 47 L61 26.5 Z"/>
    <path fill="#EFE8D8" d="M61 26.5 L37 47 L37 52 L61 34 Z"/>
    <path fill="#E3B054" d="M32 9 L39.5 28 L32 48 L24.5 28 Z"/>
  </g>
  <path fill="#EFE8D8" d="M131.55375309479237 61.18756276065111 123.44948320558667 39.097295199036594H129.03926528531312L134.48294665053487 55.91271878477931H133.60903244119882L133.82537057596446 55.24694425690174L139.5480154339075 39.097295199036594H142.2480558769405L148.167424433738 55.78524557596445H147.31031932294368L147.4956851759255 55.1677047714591L152.54236064699293 39.097295199036594H155.27331388404966L147.63904388278723 61.18756276065111H145.2751189147532L139.1661396832168 44.2666397292316H140.06300719740986L139.8408390983343 44.8471087563932L133.92177562177181 61.18756276065111ZM121.90089879721403 40.894815950989724V39.097295199036594H132.94891203209758V40.891582927018405L127.95634318619966 41.63469295364618H126.32006393182277ZM135.63496408182382 40.891582927018405V39.097295199036594H146.1046415720582V40.891582927018405L141.7919647977352 41.621760857760904L140.349356074363 41.61629744583368ZM148.7399888998568 40.891582927018405V39.097295199036594H156.9750331223309V40.894815950989724L153.56288457277418 41.5671133968234H152.73432304933667Z"/>
  <path fill="#EFE8D8" d="M158.6934401195049 61.0V59.24061053141951L163.3429927895963 58.351938135117294H165.397672868073L169.89954322764277 59.24061053141951V61.0ZM161.63051923757791 61.0Q161.68248396751284 59.93653658807278 161.70616689400373 58.21265178205073Q161.72984982049465 56.48876697602868 161.75284982049465 54.627240185528834Q161.77584982049464 52.765713395028996 161.77584982049464 51.33089678466571V49.202657270845926Q161.77584982049464 47.30053203188118 161.75353274698557 46.020486201388266Q161.73121567347647 44.74044037089536 161.63921567347646 43.34893999093771L158.36515781214834 42.899514828294514V41.30412005290389L166.45815180417895 38.461542627304794L167.16377452611923 38.92954285106185L167.0211756491661 45.31089051118493V51.32999463791339Q167.0211756491661 52.765060949609904 167.0441756491661 54.62691396281929Q167.0671756491661 56.48876697602868 167.09247508764267 58.21265178205073Q167.11777452611923 59.93653658807278 167.16650623208284 61.0ZM164.19346402877568 34.37094545933604Q162.79168723804247 34.37094545933604 161.81367738314216 33.47512288440764Q160.83566752824186 32.57930030947924 160.83566752824186 31.173408105820418Q160.83566752824186 29.772114779114723 161.81367738314216 28.879173242539167Q162.79168723804247 27.98623170596361 164.19346402877568 27.98623170596361Q165.59983969646203 27.98623170596361 166.57555011288576 28.880064233750105Q167.5512605293095 29.773896761536598 167.5512605293095 31.17103212925792Q167.5512605293095 32.57276637393237 166.57555011288576 33.471855916634205Q165.59983969646203 34.37094545933604 164.19346402877568 34.37094545933604Z"/>
  <path fill="#EFE8D8" d="M180.1557602851689 61.63575257173181Q178.09756713867188 61.63575257173181 176.37077722993496 61.16783093261719Q174.643987321198 60.69990929350257 172.9052340500653 59.75400039097667L172.87702239489556 54.405054869115354H175.67205170476439L176.8982729804814 60.20352257475257H174.82313689860703V57.8103557459116Q176.09422985014322 58.65812833717465 177.36936847248677 59.08087328363955Q178.6445070948303 59.50361823010444 180.2112388007939 59.50361823010444Q181.76920377486945 59.50361823010444 182.81548815830052 59.11498291929066Q183.86177254173163 58.72634760847688 184.3786842931509 57.98815631604195Q184.89559604457023 57.24996502360702 184.89559604457023 56.26838701242208Q184.89559604457023 54.91074438476562 183.90861987216772 54.05696203613281Q182.9216436997652 53.2031796875 180.76824311453106 52.505433577239515L178.59976676490905 51.771019986510275Q176.94366974377633 51.17173992419243 175.69103313884142 50.31015229421854Q174.43839653390648 49.44856466424465 173.75311130423847 48.210054426848885Q173.06782607457043 46.97154418945313 173.06782607457043 45.32270652645826Q173.06782607457043 43.44993154332042 174.0519030761719 41.897460970520974Q175.03598007777336 40.34499039772153 176.94242176856102 39.40326651251316Q178.8488634593487 38.461542627304794 181.6071636054814 38.461542627304794Q183.54034571787716 38.461542627304794 185.13877506305278 38.930562720254066Q186.73720440822842 39.39958281320334 188.30743774062398 40.305786182343965L188.0756195445955 45.19642395845055H185.35237653088572L184.19658785760404 40.13474166795611H186.19792781165245V42.251788085937505Q185.05243756252528 41.408344840377566 183.96867195403576 41.017179972037674Q182.88490634554626 40.62601510369778 181.51657843342426 40.62601510369778Q179.63916142472627 40.62601510369778 178.6098265206963 41.414623664602644Q177.58049161666634 42.2032322255075 177.58049161666634 43.578817089140415Q177.58049161666634 44.911781901627776 178.47346023721997 45.68280489949882Q179.36642885777357 46.45382789736986 181.65760888671878 47.251185352265836L183.3772125621736 47.81096827822924Q185.54698113337162 48.540831966966394 186.91116021052005 49.53885767515004Q188.2753392876685 50.53688338333368 188.9140518689901 51.79156268811226Q189.55276445031168 53.046241992890835 189.55276445031168 54.65563149449229Q189.55276445031168 56.68370139950514 188.46011060132088 58.25600633114576Q187.36745675233007 59.828311262786386 185.28297979147732 60.73203191725909Q183.1985028306246 61.63575257173181 180.1557602851689 61.63575257173181Z"/>
  <path fill="#EFE8D8" d="M201.85816456729174 61.63575257173181Q199.17702960529925 61.63575257173181 197.10110048775377 60.26442057262361Q195.02517137020828 58.89308857351541 193.84832113485038 56.34873816655576Q192.6714708994925 53.80438775959611 192.6714708994925 50.287770687669514Q192.6714708994925 46.649134995013476 194.01063801287114 44.005343726992606Q195.3498051262498 41.361552458971744 197.58039688184857 39.91154754313827Q199.81098863744737 38.461542627304794 202.4949900710285 38.461542627304794Q203.84450694799426 38.461542627304794 204.98819574123624 38.859891618072986Q206.13188453447822 39.25824060884118 207.16661713533105 40.110941243782634Q208.2013497361839 40.9636418787241 209.15848171895743 42.385675749987364H210.03788733208182L209.58075713908673 44.81716554033756Q207.88992584025863 43.01531480932236 206.6163208524138 42.27419453880191Q205.34271586456896 41.53307426828146 203.94122665804628 41.53307426828146Q202.38727345225217 41.53307426828146 201.08358854049447 42.45180195330083Q199.77990362873675 43.37052963832021 199.0068184888214 45.285344994589686Q198.23373334890604 47.200160350859164 198.23373334890604 50.179743668854236Q198.23373334890604 52.98767197406292 198.96081848882142 54.84797250291705Q199.68790362873676 56.708273031771185 200.9792925282419 57.61941947486997Q202.27068142774704 58.53056591796875 203.9211477198303 58.53056591796875Q205.61737340131404 58.53056591796875 206.92166382959488 57.56924448470771Q208.22595425787569 56.607923051446676 209.55879887062312 54.749362717449664L210.00955214175582 57.207030941575766H209.17697424790265Q208.29036065822842 58.64436113351584 207.2036938945502 59.637795142129065Q206.11702713087203 60.63122915074229 204.8025924228579 61.13349086123705Q203.48815771484377 61.63575257173181 201.85816456729174 61.63575257173181ZM208.59617421734333 61.490055436432364 208.13297893786432 57.09297358328104V56.96905097585916V42.878756953269246L208.30909806197883 42.33517596286535V31.41615390765667L204.73471770739556 30.925327621966602V29.251643686771395L212.86897805684805 27.201179931640624L213.53319965574147 27.61153138032556L213.34919965574147 34.40184389859438V58.7406610520184L216.4325462563932 59.24061053141951V61.0Z"/>
  <path fill="#EFE8D8" d="M229.79972918376325 61.63575257173181Q226.76709114700554 61.63575257173181 224.2885828462243 60.28176717151702Q221.81007454544306 58.92778177130222 220.35077272246775 56.32914878807962Q218.89147089949248 53.73051580485701 218.89147089949248 50.084840381562714Q218.89147089949248 46.397763835221525 220.40405433042343 43.79753274786472Q221.91663776135442 41.19730166050792 224.40197699475289 39.829422143906356Q226.88731622815132 38.461542627304794 229.79972918376325 38.461542627304794Q232.72306896322965 38.461542627304794 235.20704234364626 39.820041113808756Q237.6910157240629 41.17853960031271 239.21405415144562 43.77392115171254Q240.7370925788283 46.36930270311237 240.7370925788283 50.07190828567743Q240.7370925788283 53.73757685652375 239.25162678240238 56.33559429606795Q237.76616098597646 58.93361173561215 235.29311776483058 60.28468215367198Q232.8200745436847 61.63575257173181 229.79972918376325 61.63575257173181ZM229.79972918376325 59.54360452520847Q231.48436396589875 59.54360452520847 232.64713997513056 58.508943254694344Q233.80991598436236 57.47428198418021 234.42432505023478 55.38861818233132Q235.0387341161072 53.30295438048243 235.0387341161072 50.10879632243514Q235.0387341161072 46.884167300611736 234.42432505023478 44.7803959300518Q233.80991598436236 42.67662455949187 232.64713997513056 41.62971017205715Q231.48436396589875 40.582795784622434 229.79972918376325 40.582795784622434Q228.11509440162777 40.582795784622434 226.9507018804103 41.632009610533714Q225.78630935919284 42.681223436444995 225.18645284871758 44.789844342961906Q224.5865963382423 46.89846524947882 224.5865963382423 50.121728418320416Q224.5865963382423 53.31265345239639 225.18645284871758 55.39576715676486Q225.78630935919284 57.478880861133334 226.9507018804103 58.5112426931709Q228.11509440162777 59.54360452520847 229.79972918376325 59.54360452520847Z"/>
  <path fill="#EFE8D8" d="M243.92348561221363 61.0V59.24061053141951L248.57303828230502 58.351938135117294H250.64001437303426L255.09270068359376 59.24061053141951V61.0ZM246.8728607425392 61.0Q246.9248254724741 59.93653658807278 246.94850839896503 58.21265178205073Q246.97219132545592 56.48876697602868 246.99519132545592 54.629181608483194Q247.01819132545592 52.76959624093771 247.01819132545592 51.33626565802098V48.99536800599098Q247.01819132545592 47.70053874108196 247.0020222580731 46.78889598309994Q246.98585319069028 45.877253225117926 246.96285319069028 45.07514538750053Q246.9398531906903 44.27303754988313 246.88155717843773 43.34893999093771L243.60749931710959 42.899514828294514V41.30412005290389L251.11026500463487 38.461542627304794L251.81588772657514 38.93010429757834L252.26351715412738 44.073894824922085V44.17149300247431V51.33626565802098Q252.26351715412738 52.76959624093771 252.28651715412738 54.629181608483194Q252.30951715412738 56.48876697602868 252.33481659260394 58.21265178205073Q252.3601160310805 59.93653658807278 252.4088477370441 61.0ZM257.68355859375004 61.0V59.24061053141951L262.2506387544274 58.351938135117294H264.3422068696618L268.7580051434636 59.24061053141951V61.0ZM260.584116227448 61.0Q260.63608095738294 59.93653658807278 260.6620633223504 58.23335234357417Q260.68804568731787 56.53016809907555 260.71036276082697 54.67058273153007Q260.73267983433607 52.81099736398458 260.73267983433607 51.33626565802098V47.166787239700554Q260.73267983433607 44.35997417062521 259.98692009259764 43.25568566156924Q259.24116035085916 42.15139715251327 257.4289175942838 42.15139715251327Q256.3850284671486 42.15139715251327 255.3661713793427 42.53972674973309Q254.34731429153683 42.928056346952914 253.34375398880246 43.66000168333947Q252.34019368606806 44.39194701972604 251.32821500709653 45.3998126450777L250.8366690426171 43.487872119843956H251.34926559197905Q252.5045452633202 41.94961704066396 253.84319873046877 40.828039224967355Q255.1818521976173 39.70646140927076 256.6911618413478 39.08400201828778Q258.20047148507837 38.461542627304794 259.78323354527356 38.461542627304794Q262.84710663992166 38.461542627304794 264.3734115715623 40.41550437889993Q265.8997165032029 42.36946613049507 265.8997165032029 46.61971678212285V51.33626565802098Q265.8997165032029 52.81099736398458 265.9227165032029 54.67058273153007Q265.9457165032029 56.53016809907555 265.97101594167947 58.23335234357417Q265.99631538015603 59.93653658807278 266.04504708611967 61.0ZM271.38251806640625 61.0V59.24061053141951L275.866759165287 58.351938135117294H277.9919822933078L282.44790162783863 59.24061053141951V61.0ZM274.22482866281274 61.0Q274.27679339274766 59.93653658807278 274.30277575771515 58.23335234357417Q274.3287581226826 56.53016809907555 274.349458684206 54.67058273153007Q274.37015924572944 52.81099736398458 274.37015924572944 51.33626565802098V47.108577018111944Q274.37015924572944 44.18207366618514 273.5907628990561 43.1667354093492Q272.8113665523827 42.15139715251327 271.03601183256507 42.15139715251327Q270.0380369147658 42.15139715251327 269.052176400736 42.5012650963217Q268.06631588670615 42.85113304013014 267.06275558397175 43.563060741484165Q266.05919528123735 44.27498844283819 264.94433541795615 45.40577737501263L264.33313598632816 43.54608234143257H264.8166274248958Q266.1207024898827 41.78852563476563 267.4878210366667 40.65854326979816Q268.8549395834506 39.5285609048307 270.34580520880223 38.995051766067746Q271.8366708341539 38.461542627304794 273.38705794388056 38.461542627304794Q276.432878693372 38.461542627304794 277.9866538159698 40.37348163254559Q279.54042893856763 42.28542063778639 279.54042893856763 46.463921808958055V51.33626565802098Q279.54042893856763 52.81099736398458 279.56274601207673 54.67058273153007Q279.58506308558583 56.53016809907555 279.6110454505533 58.23335234357417Q279.63702781552075 59.93653658807278 279.6857595214844 61.0Z"/>
  <path fill="#E3B054" d="M285.18960449218747 51.1815423501432V47.875427411198615H296.30221124592424V51.1815423501432Z"/>
  <path fill="#E3B054" d="M299.1569456539452 61.0V59.24061053141951L303.9647232583463 58.351938135117294H306.1831206037104L310.80969104829427 59.24061053141951V61.0ZM302.24314990234376 61.0Q302.2951146322787 59.439723111510276 302.3187975587696 57.819341113105416Q302.34248048526047 56.19895911470056 302.3654804852605 54.567079923912885Q302.38848048526046 52.935200733125214 302.38848048526046 51.33626565802098V41.68336686080694H298.94868336611984V39.50669632208347L304.18058806696536 38.809365739166736L302.38984633824225 39.83654164898395Q302.6074155603647 37.209776721626525 303.0630840825587 35.39979046604037Q303.51875260475276 33.589804210454226 304.3231538012177 32.24426760587096Q305.1275549976826 30.8987310012877 306.32592015126346 29.70022774666548Q307.27009664842484 28.75641446647048 308.5101821701825 28.097299289882184Q309.75026769194005 27.438184113293886 311.2295019926429 27.089682022467255Q312.7087362933457 26.741179931640623 314.3385223105848 26.741179931640623Q317.3318191708326 26.741179931640623 319.27640611967445 27.850371046856043Q321.22099306851624 28.959562162071464 321.43257417097686 30.901835212111475Q321.3115548508465 31.880152545392512 320.6266198978126 32.53750869703293Q319.9416849447787 33.19486484867335 318.82904964309927 33.19486484867335Q317.8294959156513 33.19486484867335 317.01025074155626 32.566725753679876Q316.1910055674612 31.9385866586864 315.38192578300834 30.69161540299654L313.5856364563405 28.061431346952915V27.569741455078123H314.9969708151817V28.311081331849095Q313.222589810729 28.4709294911325 311.8124927244335 29.22418090556562Q310.40239563813805 29.97743231999874 309.4442643547654 31.19295307019353Q308.6964541658461 32.113813045531515 308.2531168038994 33.47839808726311Q307.8097794419527 34.8429831289947 307.6635826563537 36.69747879312932Q307.5173858707547 38.551974457263945 307.6338063139319 40.99779415643215V51.33626565802098Q307.6338063139319 52.935200733125214 307.65680631393195 54.567079923912885Q307.6798063139319 56.19895911470056 307.7051057524085 57.819341113105416Q307.73040519088505 59.439723111510276 307.7791368968487 61.0ZM313.31071031713486 61.0V59.24061053141951L317.8933195140362 58.351938135117294H319.9447665685415L324.4498699520826 59.24061053141951V61.0ZM316.1776129380464 61.0Q316.22957766798135 59.93653658807278 316.25394352096316 58.21265178205073Q316.278309373945 56.48876697602868 316.3006264474541 54.629181608483194Q316.3229435209632 52.76959624093771 316.3229435209632 51.33626565802098V48.68672445306182Q316.3229435209632 47.192256971538065 316.3006264474541 46.01627580988407Q316.278309373945 44.84029464823008 316.255309373945 43.78571215170622Q316.232309373945 42.73112965518236 316.186309373945 41.68336686080694H305.0071322434246V39.097295199036594H317.36158147516846L321.00524550464746 38.461542627304794L321.71410125055905 38.93010429757834L321.57150237360594 45.31089051118493V51.33626565802098Q321.57150237360594 52.76959624093771 321.5945023736059 54.629181608483194Q321.61750237360593 56.48876697602868 321.6428018120825 58.21265178205073Q321.66810125055906 59.93653658807278 321.7168329565227 61.0Z"/>
  <path fill="#E3B054" d="M327.1251038092971 61.0V59.24061053141951L331.82384052839876 58.351938135117294H334.4408673308194L339.18609413746003 59.24061053141951V61.0ZM330.04086074253917 61.0Q330.0928254724741 59.93653658807278 330.11650839896504 58.21265178205073Q330.14019132545593 56.48876697602868 330.16319132545595 54.629181608483194Q330.1861913254559 52.76959624093771 330.1861913254559 51.33626565802098V48.98307199373841Q330.1861913254559 47.68824272882938 330.1638742519468 46.776599970847364Q330.1415571784377 45.86495721286535 330.11855717843775 45.06899738137424Q330.09555717843773 44.27303754988313 330.04955717843774 43.34893999093771L326.7754993171096 42.899514828294514V41.30412005290389L334.2782650046349 38.461542627304794L334.9838877265752 38.93010429757834L335.4315171541274 44.72367864313722V44.82164337307215V51.33626565802098Q335.4315171541274 52.76959624093771 335.4545171541274 54.629181608483194Q335.4775171541274 56.48876697602868 335.50281659260395 58.21265178205073Q335.5281160310805 59.93653658807278 335.5768477370441 61.0ZM335.3452123528123 48.34611054265499 334.30696121641995 45.27739128962159H335.121862141341Q335.79961510404945 43.05497073438764 336.87510879679024 41.54733827246726Q337.95060248953104 40.03970581054688 339.2545225656182 39.250624218925836Q340.5584426417053 38.461542627304794 341.8465774073303 38.461542627304794Q343.0885129376948 38.461542627304794 344.0675571271479 39.07294000656903Q345.046601316601 39.68433738583326 345.3976206367314 40.869135626614096Q345.36569802930956 42.51138037109375 344.59070157760385 43.40901827014983Q343.81570512589815 44.30665616920591 342.46803536561134 44.30665616920591Q341.58133932068944 44.30665616920591 340.83334461011 43.910155941575766Q340.08534989953046 43.513655713945624 339.3680751440227 42.73027187535167L338.11664226794244 41.366191782474516L340.1538818506897 41.39087875941396Q338.4482802056372 42.379211475312715 337.218754026562 44.14670315714181Q335.98922784748675 45.9141948389709 335.3452123528123 48.34611054265499Z"/>
  <path fill="#E3B054" d="M354.1737602851689 61.63575257173181Q352.11556713867185 61.63575257173181 350.38877722993493 61.16783093261719Q348.66198732119796 60.69990929350257 346.9232340500653 59.75400039097667L346.89502239489553 54.405054869115354H349.69005170476436L350.9162729804814 60.20352257475257H348.84113689860703V57.8103557459116Q350.1122298501432 58.65812833717465 351.38736847248674 59.08087328363955Q352.6625070948303 59.50361823010444 354.2292388007939 59.50361823010444Q355.78720377486945 59.50361823010444 356.8334881583005 59.11498291929066Q357.8797725417316 58.72634760847688 358.3966842931509 57.98815631604195Q358.91359604457017 57.24996502360702 358.91359604457017 56.26838701242208Q358.91359604457017 54.91074438476562 357.9266198721677 54.05696203613281Q356.9396436997652 53.2031796875 354.78624311453103 52.505433577239515L352.617766764909 51.771019986510275Q350.9616697437763 51.17173992419243 349.7090331388414 50.31015229421854Q348.45639653390646 49.44856466424465 347.77111130423845 48.210054426848885Q347.08582607457043 46.97154418945313 347.08582607457043 45.32270652645826Q347.08582607457043 43.44993154332042 348.06990307617184 41.897460970520974Q349.0539800777733 40.34499039772153 350.960421768561 39.40326651251316Q352.8668634593487 38.461542627304794 355.62516360548136 38.461542627304794Q357.55834571787716 38.461542627304794 359.1567750630528 38.930562720254066Q360.7552044082284 39.39958281320334 362.32543774062395 40.305786182343965L362.09361954459547 45.19642395845055H359.37037653088566L358.214587857604 40.13474166795611H360.2159278116524V42.251788085937505Q359.0704375625253 41.408344840377566 357.9866719540357 41.017179972037674Q356.9029063455462 40.62601510369778 355.5345784334242 40.62601510369778Q353.6571614247262 40.62601510369778 352.62782652069626 41.414623664602644Q351.5984916166663 42.2032322255075 351.5984916166663 43.578817089140415Q351.5984916166663 44.911781901627776 352.49146023721994 45.68280489949882Q353.3844288577735 46.45382789736986 355.67560888671875 47.251185352265836L357.3952125621736 47.81096827822924Q359.5649811333716 48.540831966966394 360.92916021052 49.53885767515004Q362.29333928766846 50.53688338333368 362.93205186899 51.79156268811226Q363.57076445031163 53.046241992890835 363.57076445031163 54.65563149449229Q363.57076445031163 56.68370139950514 362.47811060132085 58.25600633114576Q361.3854567523301 59.828311262786386 359.3009797914773 60.73203191725909Q357.21650283062456 61.63575257173181 354.1737602851689 61.63575257173181Z"/>
  <path fill="#E3B054" d="M371.453732421875 41.68336686080694V39.097295199036594H379.68665096145867V41.68336686080694ZM374.5290613123178 61.63575257173181Q371.8622263678908 61.63575257173181 370.31477019938825 60.26908178710937Q368.7673140308857 58.90241100248694 368.7673140308857 55.973372688919305Q368.7673140308857 54.92819340890646 368.78733166591826 53.97837417115271Q368.80734930095076 53.028554933398965 368.80871515393255 51.661999577760696L368.81791290783883 41.68336686080694H365.383215983659V39.50669632208347L370.88672104281187 38.8028996912241L368.7463705576956 40.393272167265415L370.92685776683686 32.693937094271185H374.2840041669011L374.06187288352845 39.9805041834116V40.83784897601605V55.49755955556035Q374.06187288352845 57.19414511859417 374.7402597977668 57.971321737825875Q375.4186467120051 58.74849835705757 376.51723227503896 58.74849835705757Q377.26384485688806 58.74849835705757 377.92772985839844 58.44692377209663Q378.5916148599088 58.14534918713569 379.3661126956641 57.57317229899764L380.42945257243514 58.658200912982224Q379.8425174973309 59.60924349075556 378.9846642093361 60.28085302822292Q378.1268109213412 60.952462565690276 377.02796783860026 61.29410756871104Q375.92912475585933 61.63575257173181 374.5290613123178 61.63575257173181Z"/>
</svg>
